<svg viewBox="0 0 256 40" fill="none" xmlns="http://www.w3.org/2000/svg" role="img" class="" style="height:24px">
    <title>F1 75</title>
    <g clip-path="url(#clip0_11874_9481:S13:)">
        <path
            d="M39.8822 22.709L22.6686 39.4093H0.712891L28.0291 12.2992C38.1843 2.24914 43.08 0.599731 60.3947 0.599731H128.788L113.944 15.1331H62.3513C49.4148 15.1331 46.6618 16.1316 39.8782 22.709H39.8822ZM111.728 17.4536H62.6626C49.6331 17.4536 47.5956 18.4521 41.6852 24.3584L26.6344 39.4093H46.9933L51.8364 34.5662C55.0381 31.3644 56.4652 31.0612 62.9173 31.0612H98.1208L111.728 17.4536ZM117.04 39.4093L155.951 0.599731H131.78L92.9704 39.4093H117.04Z"
            fill="#E10600"></path>
        <path
            d="M133.381 39.4093C132.156 39.4093 131.137 39.001 130.329 38.1803C129.516 37.3596 129.112 36.353 129.112 35.1564C129.112 33.9598 129.516 32.9531 130.321 32.1406C131.125 31.328 132.14 30.9197 133.365 30.9197C134.59 30.9197 135.6 31.328 136.401 32.1486C137.201 32.9693 137.601 33.9759 137.601 35.1726C137.601 36.3692 137.205 37.3758 136.409 38.1884C135.612 39.001 134.606 39.4093 133.381 39.4093ZM133.357 31.5867C132.354 31.5867 131.513 31.9344 130.834 32.6297C130.159 33.3251 129.819 34.1659 129.819 35.1564C129.819 36.1468 130.159 36.9877 130.834 37.683C131.509 38.3784 132.35 38.7261 133.357 38.7261C134.363 38.7261 135.2 38.3824 135.879 37.6911C136.554 36.9998 136.894 36.159 136.894 35.1645C136.894 34.17 136.554 33.3251 135.879 32.6297C135.204 31.9344 134.363 31.5867 133.357 31.5867ZM132.528 35.8639V37.5294H131.594V32.8197H133.365C133.975 32.8197 134.436 32.9329 134.743 33.1634C135.05 33.3897 135.204 33.7334 135.204 34.1902C135.204 34.647 135.143 34.9866 135.018 35.2089C134.893 35.4313 134.683 35.6092 134.383 35.7466L135.269 37.5335H134.286L133.482 35.8679H132.532L132.528 35.8639ZM132.512 33.5474V35.1321H133.462C133.753 35.1321 133.963 35.0715 134.088 34.9462C134.218 34.8208 134.282 34.6187 134.282 34.3398C134.282 33.8102 133.951 33.5474 133.284 33.5474H132.512Z"
            fill="#E10600"></path>
        <path
            d="M182.806 27.1923H214.113L216.437 24.8719H185.131L209.472 0.599731H254.636L242.387 12.8166H215.156L212.831 15.1331H227.72C232.523 15.1331 234.464 15.8729 235.87 17.6193C238.15 20.4815 236.056 24.7101 232.952 28.5426C229.556 32.7146 226.305 35.5768 221.988 37.2747C217.428 39.0697 212.674 39.4093 207.192 39.4093H170.557L182.806 27.1923Z"
            fill="white"></path>
        <path d="M167.57 39.4093L206.48 0.599731H158.939L146.689 12.8207H170.104L143.443 39.4093H167.57Z" fill="white">
        </path>
    </g>
    <defs>
        <clipPath id="clip0_11874_9481:S13:">
            <rect width="255" height="40" fill="white" transform="translate(0.0894165 0.00231934)"></rect>
        </clipPath>
    </defs>
</svg>
